# xmcd CD database file
#
# Track frame offsets:
#	150
#	17992
#	41692
#	70962
#	90460
#	108295
#	121387
#	160630
#	182430
#	206192
#	228860
#	250610
#	268652
#
# Disc length: 3874 seconds
#
# Revision: 0
# Processed by: cddbd v1.5.1PL2 Copyright (c) Steve Scherf et al.
# Submitted via: CDex 1.51
#
DISCID=a60f200d
DTITLE=LENA MARIA and ANDERS BAND - LIVE IN JAPAN
DYEAR=1996
DGENRE=Jazz
TTITLE0=歌わせてください
TTITLE1=わたしのすべて
TTITLE2=マイライフ
TTITLE3=詩篇23篇
TTITLE4=輝く日を仰ぐとき
TTITLE5=山に登り告げよ
TTITLE6=リパブリック讃歌
TTITLE7=隠さないで
TTITLE8=主よ、どうしてですか
TTITLE9=わが感謝の贈物
TTITLE10=そのままで来なさい
TTITLE11=いちわのすずめに
TTITLE12=アイ・ワーシップ・ユー
EXTD=YEAR: 1996
EXTT0=
EXTT1=
EXTT2=
EXTT3=
EXTT4=
EXTT5=
EXTT6=
EXTT7=
EXTT8=
EXTT9=
EXTT10=
EXTT11=
EXTT12=
PLAYORDER=
